<?xml version="1.0" standalone="no"?>
<!DOCTYPE svg PUBLIC "-//W3C//DTD SVG 1.1//EN" "http://www.w3.org/Graphics/SVG/1.1/DTD/svg11.dtd" >
<!--
2013-9-30: Created.
-->
<svg>
<metadata>
Created by iconfont
</metadata>
<defs>

<font id="iconfont" horiz-adv-x="1024" >
  <font-face
    font-family="iconfont"
    font-weight="500"
    font-stretch="normal"
    units-per-em="1024"
    ascent="896"
    descent="-128"
  />
    <missing-glyph />
    
    <glyph glyph-name="gerenzhongxin" unicode="&#58890;" d="M507.908 830.977c-247.741 0-448.5-200.759-448.5-448.503 0-247.739 200.759-448.501 448.5-448.501 247.746 0 448.503 200.862 448.503 448.501 0 247.642-200.862 448.503-448.503 448.503zM507.908 684.691v0 0c75.196 0 136.233-61.038 136.233-136.233 0-75.196-61.036-136.232-136.233-136.232-75.194 0-136.231 60.935-136.231 136.232 0 75.194 60.935 136.233 136.231 136.233zM804.79 188.488c-1.539-1.848-3.18-3.489-5.026-5.025-166.29-138.697-407.98-138.697-574.269 0-16.415 13.643-18.568 37.956-5.026 54.266 1.539 1.846 3.179 3.486 5.026 5.026 166.289 138.694 407.98 138.694 574.269 0 16.414-13.645 18.672-37.955 5.026-54.267z"  horiz-adv-x="1024" />

    
    <glyph glyph-name="shoujihao" unicode="&#58897;" d="M742.4-128H281.6c-56.4736 0-102.4 45.9264-102.4 102.4V793.6C179.2 850.0736 225.1264 896 281.6 896h460.8c56.4736 0 102.4-45.9264 102.4-102.4v-819.2c0-56.4736-45.9264-102.4-102.4-102.4z m51.2 921.6c0 28.2112-22.9888 51.2-51.2 51.2H281.6c-28.2112 0-51.2-22.9888-51.2-51.2v-665.6h563.2V793.6z m0-716.8H230.4v-102.4c0-28.2112 22.9888-51.2 51.2-51.2h460.8c28.2112 0 51.2 22.9888 51.2 51.2v102.4z m-224-102.4h-115.2a25.6 25.6 0 0 0 0 51.2h115.2a25.6 25.6 0 1 0 0-51.2z"  horiz-adv-x="1024" />

    
    <glyph glyph-name="mima" unicode="&#58971;" d="M668.444444 615.537778c0 88.405333-70.428444 159.573333-156.444444 159.573333s-156.444444-71.168-156.444444-159.573333v-106.382222h312.888888V615.537778z m172.088889-184.604445H183.466667v-438.044444h657.066666v438.044444zM277.333333 615.537778c0 131.413333 104.817778 237.795556 234.666667 237.795555s234.666667-106.382222 234.666667-237.795555v-106.382222h109.511111c34.417778 0 62.577778-28.16 62.577778-62.577778v-469.333334c0-34.417778-28.16-62.577778-62.577778-62.577777H167.822222c-34.446222 0-62.577778 28.16-62.577778 62.577777V446.577778c0 34.417778 28.131556 62.577778 62.577778 62.577778h109.511111V615.537778z"  horiz-adv-x="1024" />

    
    <glyph glyph-name="yanzhengma" unicode="&#58934;" d="M512.035158-128c101.956466 34.50699 197.449829 100.585327 266.639596 196.594333 54.523271 75.553257 98.218062 169.56415 129.806988 279.706431 53.240026 185.572487 53.925595 350.894311 53.925595 357.855476 0.105472 15.791533-11.115599 28.893525-26.080932 30.44631-2.355546 0.205085-241.203216 26.286018-407.228188 153.573392a27.809505 27.809505 0 0 1-34.055804 0C329.908096 763.621014 90.175631 736.813495 87.808366 736.60841c-14.965334-1.459032-26.180545-14.654777-26.180546-30.44631 0-6.961166 0.591816-172.27713 53.931455-357.849617 31.594785-109.925477 75.184104-204.065281 129.806988-279.712291 69.189767-95.909393 164.812041-162.093202 266.668895-196.600192m391.823386 807.249108l-0.105472-1.664117c-2.84775-60.376978-13.189885-181.212969-50.585642-311.623492-65.644729-228.681322-180.199264-374.156792-340.517018-432.348152l-0.591816-0.205085-0.603536 0.205085c-159.813831 58.080028-274.274612 203.033997-340.106847 430.906698-39.165346 135.590381-48.616827 264.119983-50.972374 313.164559l-0.105472 1.658257 1.476611 0.210945c69.476886 10.699569 246.523703 46.542541 389.221738 147.959926l0.884795 0.732446 0.990267-0.732446c142.897261-101.417386 319.944078-137.260357 389.426823-148.071258l1.587943-0.193366zM675.692864 533.328311l-210.69831-227.691055-121.867275 106.761311a34.688637 34.688637 0 0 1-22.389406 8.203394 34.366361 34.366361 0 0 1-26.245-12.058989c-12.305091-14.414535-10.664412-36.335175 3.873174-48.640266l149.641622-130.539433c6.099809-5.162279 14.531726-8.203394 22.975362-8.203394 1.054722 0 2.097725 0 3.158307 0.123051a34.51285 34.51285 0 0 1 23.795701 13.348093l232.835755 256.637316a33.932753 33.932753 0 0 1 6.685766 25.541853c-1.166054 9.146784-5.976758 17.227127-13.242622 22.852311-15.363785 11.713274-37.038323 8.783491-48.523074-6.334192z"  horiz-adv-x="1024" />

    
    <glyph glyph-name="mendianguanli1" unicode="&#58898;" d="M958.4 539.2l-64 256C889.6 817.6 870.4 832 848 832H176c-22.4 0-41.6-14.4-46.4-36.8l-64-256c-1.6-3.2-1.6-8-1.6-11.2 0-62.4 40-115.2 96-136V16c0-44.8 35.2-80 80-80h544c44.8 0 80 35.2 80 80V392c56 19.2 96 73.6 96 136 0 3.2 0 8-1.6 11.2zM816 16c0-17.6-14.4-32-32-32H240c-17.6 0-32 14.4-32 32V384h16c35.2 0 70.4 12.8 96 36.8 25.6-24 60.8-36.8 96-36.8s70.4 12.8 96 36.8c25.6-24 60.8-36.8 96-36.8s70.4 12.8 96 36.8c25.6-24 60.8-36.8 96-36.8h16v-368z m0 416h-16c-35.2 0-67.2 19.2-83.2 48h-25.6c-16-28.8-48-48-83.2-48s-67.2 19.2-83.2 48h-25.6c-16-28.8-48-48-83.2-48s-67.2 19.2-83.2 48h-25.6c-16-28.8-48-48-83.2-48h-16c-52.8 0-96 43.2-96 96l64 256h672l64-256c0-52.8-43.2-96-96-96z m-64 240H272c-9.6 0-16-6.4-16-16s6.4-16 16-16h480c9.6 0 16 6.4 16 16s-6.4 16-16 16z"  horiz-adv-x="1024" />

    
    <glyph glyph-name="caidan" unicode="&#58995;" d="M70.5 656.2c0-30.6 24.8-55.4 55.4-55.4s55.4 24.8 55.4 55.4-24.8 55.4-55.4 55.4c-30.6 0-55.4-24.8-55.4-55.4zM70.6 381.8c0-30.6 24.8-55.4 55.4-55.4 30.6 0 55.4 24.8 55.4 55.4 0 30.6-24.8 55.4-55.4 55.4-30.6 0.1-55.4-24.7-55.4-55.4zM70.6 106c0-30.6 24.8-55.4 55.4-55.4 30.6 0 55.4 24.8 55.4 55.4 0 30.6-24.8 55.4-55.4 55.4S70.6 136.7 70.6 106zM957.2 658.8c0-29.2-21.7-52.8-48.5-52.8H334c-26.8 0-48.5 23.7-48.5 52.8 0 29.1 21.7 52.8 48.5 52.8h574.7c26.8 0 48.5-23.6 48.5-52.8zM957.2 384.4c0-29.1-21.7-52.8-48.5-52.8H334c-26.8 0-48.5 23.7-48.5 52.8 0 29.2 21.7 52.8 48.5 52.8h574.7c26.8 0 48.5-23.6 48.5-52.8zM957.2 108.7c0-29.2-21.7-52.9-48.5-52.9H334c-26.8 0-48.5 23.7-48.5 52.9 0 29.1 21.7 52.7 48.5 52.7h574.7c26.8 0.1 48.5-23.6 48.5-52.7z"  horiz-adv-x="1024" />

    
    <glyph glyph-name="quanxianguanli1" unicode="&#58930;" d="M939.648014 167.695418h-0.276132c-0.915593 8.9779-8.061095 16.123402-17.038995 17.040206h-10.535377v0.089622c-11.17605 0-20.97871 6.504829-25.649931 15.940525-1.09847 2.290194-2.016485 4.765687-2.474281 7.420423-2.106107 5.864156-4.488344 11.633847-7.145503 17.13225-1.37339 2.015274-2.382238 4.122591-3.204576 6.412785-1.099681 3.022911-1.64831 6.229909-1.64831 9.526529 0 7.87943 3.204576 15.024932 8.334805 20.247205l5.864156 5.861734c0.092044 0.093255 0.182876 0.093255 0.276131 0.182877 0.092044 0.092044 0.092044 0.184088 0.182877 0.277342 6.779749 6.962626 7.144291 17.863756 1.098469 25.282967l0.093255 0.092044a280.154556 280.154556 0 0 1-14.017295 15.390685 235.29049 235.29049 0 0 1-15.756438 14.383048l-0.090833-0.092043c-6.688917 5.495981-16.308701 5.680069-23.272538 0.641884l-4.212213-4.214635-3.940926-3.847672-0.182876 0.182877c-8.338438-8.337227-20.520914-10.443333-30.872203-6.321953-1.374601 0.54984-2.747991 1.190513-4.030548 2.016485-6.596873 3.205787-13.3742 5.953778-20.336826 8.337226-1.283768 0.27492-2.47307 0.731506-3.664795 1.190514-3.297831 1.282557-6.504829 3.388664-9.25282 6.136654-4.671221 4.671221-7.32959 10.534166-8.153139 16.673242a31.056291 31.056291 0 0 0 0 7.145503v4.947352c0 9.344864-6.778538 17.221872-15.664395 18.78056l-3.301464 0.273709c-6.412786 0.459008-12.731105 0.732717-19.146313 0.732717a219.209477 219.209477 0 0 1-19.053058-0.824761c-1.097258-0.090833-2.19815-0.181665-3.389875-0.27492-8.884645-1.557477-15.666817-9.343653-15.666816-18.781771v-8.517681c0-12.278153-7.695343-22.720275-18.595261-26.842867-0.641884-0.27492-1.37339-0.548629-2.106107-0.731505-7.60451-2.565114-15.026144-5.680069-22.170435-9.160777h-0.090832c-0.551051-0.27492-1.099681-0.54984-1.741565-0.82476a28.642564 28.642564 0 0 0-11.909978-2.565114 28.452421 28.452421 0 0 0-20.155161 8.338438h-0.092044l-6.04461 6.04461c-6.596873 6.595662-16.856119 7.32959-24.277753 2.19815-0.823549-0.732717-1.741565-1.374601-2.565114-2.107317l-0.090832-0.090833a234.40033 234.40033 0 0 1-26.9337-26.932488c-0.732717-0.825972-1.465434-1.741565-2.196939-2.566325-5.223483-7.419211-4.487133-17.679668 2.196939-24.368585l6.047033-6.044611c8.610936-8.70298 10.624999-21.528551 5.864156-32.063928-0.277342-0.641884-0.641884-1.283768-1.008848-1.924441-3.481918-7.053459-6.594451-14.475092-9.160776-22.078391-0.181665-0.824761-0.54984-1.556266-0.823549-2.382238-1.374601-3.57154-3.573962-7.053459-6.50483-9.892281-5.589236-5.589236-12.917615-8.338438-20.247204-8.338438v-0.089622h-8.518892c-9.343653 0-17.223083-6.779749-18.78056-15.668027-0.092044-1.097258-0.182876-2.19815-0.276131-3.389875a263.627857 263.627857 0 0 1-0.731506-19.053058v-0.365753c0-6.320742 0.27492-12.550651 0.731506-18.779349 0.093255-1.09847 0.184088-2.199361 0.276131-3.299042 1.557477-8.887067 9.344864-15.666817 18.689727-15.666816h8.517681c12.186109 0 22.537399-7.603299 26.661201-18.320342 0.273709-0.733928 0.548629-1.466645 0.731506-2.108528 0.093255 0 0.093255-0.090833 0.093255-0.090833 2.563903-7.603299 5.678858-15.024932 9.160776-22.168013 0.08841 0 0.08841-0.093255 0.08841-0.093254 0.276131-0.551051 0.552263-1.09847 0.825972-1.741565a28.929595 28.929595 0 0 0 2.565114-11.906345c0-7.880641-3.205787-15.023721-8.337226-20.248416l-5.770902-5.772112c-0.092044-0.090833-0.182876-0.090833-0.182876-0.181665-0.092044-0.092044-0.182876-0.181665-0.182877-0.274921-6.321953-6.504829-7.053459-16.58241-2.107317-23.909577a1571.647173 1571.647173 0 0 1 2.474281-3.024122c4.030548-4.856519 8.337227-9.435696 12.825571-13.925251 4.487133-4.489555 9.069943-8.795023 13.924041-12.823149 1.007637-0.827183 1.925652-1.650732 2.932078-2.475493 6.595662-4.488344 15.390685-4.305468 21.896726 0.457797l4.213424 4.213424 3.938504 3.939715 0.182876-0.184088c8.705402 8.612147 21.52734 10.62621 32.065139 5.773324 0.54984-0.184088 1.09847-0.457797 1.556266-0.731506 0 0 0.092044 0 0.092044-0.092043 7.145502-3.572751 14.65918-6.686495 22.353311-9.254032 0.639462-0.181665 1.280135-0.457797 1.92323-0.639461 3.755628-1.374601 7.237546-3.572751 10.260457-6.595662 5.586814-5.588025 8.337227-12.916404 8.337227-20.247205h0.090832v-8.337227c0-9.801449 7.512466-17.954588 17.131039-18.961014v-0.093255c6.962626-0.639462 13.925252-1.006426 20.978711-1.006426s14.108128 0.27492 20.97871 1.006426v0.093255c9.618573 1.006426 17.13225 9.159565 17.13225 18.961014v8.520103c0 11.45097 6.779749 21.345674 16.489155 25.926063 2.016485 0.915593 4.030548 1.64831 6.228698 2.106106a187.627568 187.627568 0 0 1 18.322763 7.603299 30.82497 30.82497 0 0 0 5.497193 2.747991 28.005525 28.005525 0 0 0 9.986747 1.833608c7.236335 0 13.831997-2.747991 18.962226-7.237546 0.915593-0.731506 1.64831-1.558688 2.474281-2.474281l4.855309-4.852886c6.686495-6.688917 17.223083-7.330801 24.643505-2.017696 0 0 0.090833 0 0.090832 0.092043 0.639462 0.54984 1.189302 1.007637 1.832398 1.557478 5.038185 4.213424 9.80266 8.610936 14.384259 13.283367a222.025289 222.025289 0 0 1 13.283368 14.475092c0.54984 0.639462 1.09847 1.281346 1.64831 2.015274 5.221061 7.144291 4.764476 17.129828-1.283768 23.908366l-1.374601 1.374601-5.313105 5.314316c-8.520103 8.520103-10.535377 21.069543-6.047033 31.514088a27.467795 27.467795 0 0 0 1.467856 2.838823c3.388664 6.871793 6.319531 14.017296 8.884645 21.345674 0.276131 1.008848 0.551051 1.92323 1.007637 2.841246 1.374601 3.572751 3.573962 6.869371 6.413996 9.801449 5.586814 5.589236 12.916404 8.337227 20.244783 8.337226h8.246394v0.092044c10.168413 0 18.503218 7.969052 19.054269 18.045421h0.27492c0.54984 6.598084 0.824761 13.284579 0.824761 19.971074a270.366429 270.366429 0 0 1-1.103314 20.979921z m-110.940584-21.160376c0-13.375411-2.196939-26.202194-6.321953-38.11096a112.257052 112.257052 0 0 0-5.497193-13.283368c-5.678858-11.72589-13.375411-22.354522-22.442932-31.514087-9.069943-9.159565-19.698575-16.764075-31.423255-22.534976-4.305468-2.107318-8.795023-4.029337-13.3742-5.588025a116.740552 116.740552 0 0 0-38.110961-6.412786h-0.365752a116.888306 116.888306 0 0 0-37.743997 6.229909c-4.764476 1.557477-9.344864 3.572751-13.833208 5.678858-11.633847 5.678858-22.169224 13.284579-31.239167 22.353311-9.160776 9.069943-16.764075 19.696153-22.536188 31.33-2.196939 4.397512-4.12138 8.9779-5.677646 13.742375-4.122591 11.908767-6.321953 24.551461-6.321953 37.834829 0 13.192535 2.288983 26.566735 6.321953 38.383458 1.64831 4.672432 3.57154 9.255242 5.677646 13.742376a116.212511 116.212511 0 0 0 22.536188 31.331211 116.205245 116.205245 0 0 0 31.514087 22.444144c4.397512 2.107318 8.887067 4.029337 13.650332 5.588025a117.347314 117.347314 0 0 0 37.745207 6.229909h0.364542a116.326355 116.326355 0 0 0 38.11096-6.412786c4.580388-1.556266 9.069943-3.480707 13.375412-5.588025 11.727101-5.770901 22.261267-13.375411 31.420832-22.534976 9.071155-9.159565 16.58241-19.697364 22.353311-31.239167 2.107318-4.305468 4.031759-8.887067 5.588025-13.466245 4.123803-11.911189 6.321953-24.735549 6.321953-38.020127v-0.181666h-0.092043v-0.001211zM462.103196 895.60047C313.788001 888.011704 190.524454 770.199327 177.010977 622.315285c-9.090532-99.404837 29.8028-192.45381 100.041876-254.693557C150.108766 293.947966 79.950833 151.144497 79.950833-2.908899v-90.705491H163.742142a363.569212 363.569212 0 0 0-2.034651 7.603299c-0.162288 0.633406-0.322153 1.268024-0.482019 1.90143a356.86334 356.86334 0 0 0-1.783953 7.410734l-0.064189 0.271287a349.736004 349.736004 0 0 0-2.009218 9.475663c-0.520774 2.61598-1.020959 5.24165-1.4836 7.878219-0.003633 0.0218-0.008478 0.042389-0.0109 0.064188a357.644501 357.644501 0 0 0-1.366123 8.409893l-0.145332 0.988259a357.472524 357.472524 0 0 0-2.10974 17.106817c-0.019378 0.184088-0.035122 0.369386-0.053289 0.553474a352.561505 352.561505 0 0 0-0.738772 8.666646l-0.003633 0.035122a360.547512 360.547512 0 0 0-0.953138 26.114995c0 164.23392 111.214293 302.454579 262.431288 343.560594v28.856929c-93.918544 27.488384-162.520211 114.249315-162.52021 217.056138 0 124.905802 101.255401 226.161203 226.162414 226.161203 124.905802 0 226.161203-101.255401 226.161203-226.161203 0-53.832276-18.819315-103.263408-50.223193-142.096185l58.788107-48.39564c44.366303 53.908576 68.801498 122.070612 68.801498 191.980269C780.084103 765.652849 635.839423 904.486326 462.103196 895.60047zM152.199128-31.951127c0.018167-0.184088 0.033911-0.369386 0.053289-0.553474a357.472524 357.472524 0 0 1 2.10974-17.106817c0.049655-0.328209 0.095677-0.660051 0.145332-0.988259a361.96208 361.96208 0 0 1 1.366123-8.409893c0.002422-0.0218 0.007267-0.042389 0.0109-0.064188 0.462641-2.636569 0.962826-5.261027 1.4836-7.878219a357.924265 357.924265 0 0 1 2.009218-9.475663l0.064189-0.271287a356.86334 356.86334 0 0 1 1.783953-7.410734l0.482019-1.90143a361.576949 361.576949 0 0 1 2.034651-7.603299h362.370221v70.366242H151.456723l0.003633-0.035122c0.210732-2.899378 0.459008-5.787857 0.738772-8.667857zM154.5087-50.599677c-0.049655 0.328209-0.095677 0.660051-0.145332 0.988259l0.145332-0.988259zM152.252417-32.504601c-0.019378 0.184088-0.035122 0.369386-0.053289 0.553474l0.053289-0.553474zM161.707491-86.00988c-0.162288 0.633406-0.322153 1.268024-0.482019 1.901431 0.159865-0.633406 0.319731-1.268024 0.482019-1.901431zM159.441519-76.697716l-0.064189 0.271287 0.064189-0.271287zM157.675732-68.486444zM151.460356-23.28327l-0.003633 0.035122 0.003633-0.035122zM155.884512-59.073758c-0.003633 0.0218-0.008478 0.042389-0.0109 0.064188 0.002422-0.0218 0.007267-0.042389 0.0109-0.064188z"  horiz-adv-x="1024" />

    
    <glyph glyph-name="select-empty" unicode="&#58882;" d="M905.12 893.33333333H118.88C58.4 893.33333333 8 842.93333333 8 782.45333333v-782.88000033C8-64.26666666999995 58.4-114.66666667000004 118.88-114.66666667000004h782.88000033c60.48 0 110.88 50.4 110.88 110.88V782.45333333C1016 842.93333333 965.6 893.33333333 905.12 893.33333333zM948.79999967 49.973333000000025c0-53.75999967-43.67999967-97.44000033-97.43999934-97.43999934H172.63999967C118.88-47.46666633999996 75.20000033-3.786666670000045 75.20000033 49.973333000000025V728.69333366C75.20000033 782.45333333 118.88 826.133333 172.63999967 826.133333h678.72000066C905.12 826.133333 948.79999967 782.45333333 948.79999967 728.69333366v-678.72000066z"  horiz-adv-x="1024" />

    
    <glyph glyph-name="dianpucuxiao" unicode="&#58881;" d="M343.97888 289.28a90.24 90.24 0 0 1-35.84 0l-28.16-5.76a179.84 179.84 0 0 0-36.48-5.12 19.2 19.2 0 0 0-16.64 12.16 26.88 26.88 0 0 0 0 21.76 42.24 42.24 0 0 0 24.32 20.48 46.08 46.08 0 0 0 40.32 0 48 48 0 0 0 16.64-12.8v-3.2l31.36 14.08v3.84a64 64 0 0 1-44.16 37.12 97.28 97.28 0 0 1-57.6-8.32 76.8 76.8 0 0 1-42.24-43.52 64 64 0 0 1 0-51.2 47.36 47.36 0 0 1 36.48-28.16 124.16 124.16 0 0 1 40.96 3.2l26.88 5.12a99.2 99.2 0 0 0 32.64 0 22.4 22.4 0 0 0 16-14.72 25.6 25.6 0 0 0-7.68-32 76.8 76.8 0 0 0-21.76-14.08 48.64 48.64 0 0 0-46.72 0 52.48 52.48 0 0 0-17.28 19.84v3.84l-30.72-10.88v-3.84a70.4 70.4 0 0 1 43.52-40.32 72.96 72.96 0 0 1 20.48-3.2 103.68 103.68 0 0 1 42.24 10.24 110.08 110.08 0 0 1 46.72 37.12 53.76 53.76 0 0 1 0 56.96 53.12 53.12 0 0 1-33.28 31.36z m56.96 139.52l15.36-220.8 34.56 15.36-5.76 64L513.57888 320l45.44-45.44 36.48 16-160.64 153.6z m89.6-88.96L443.81888 320l-6.4 74.88z m136.96 0L551.33888 496.64l-33.28-14.72L608.29888 293.76l128 56.96-14.08 29.44z m145.92 64l-25.6 53.12 101.76 46.08-13.44 28.8-99.84-46.08-22.4 46.72 110.08 49.28-14.08 30.08-142.72-64 89.6-188.16 144.64 64-14.08 29.44z m232.32-44.16a64 64 0 0 0 0 49.92l40.32 90.24a115.2 115.2 0 0 1 0 93.44 120.32 120.32 0 0 1-68.48 64l-94.08 35.84a64 64 0 0 0-36.48 35.2l-37.12 91.52a120.32 120.32 0 0 1-67.84 64A128 128 0 0 1 646.69888 885.76L553.89888 846.72a64 64 0 0 0-51.2 0L409.89888 885.76a128 128 0 0 1-96.64 0 120.32 120.32 0 0 1-67.84-64l-36.48-92.8a64 64 0 0 0-36.48-35.2l-94.08-35.84a120.32 120.32 0 0 1-68.48-64 115.2 115.2 0 0 1 0-93.44l40.32-89.6a64 64 0 0 0 0-49.92L10.53888 269.44000000000005a115.2 115.2 0 0 1 0-93.44 120.96 120.96 0 0 1 68.48-64l94.08-35.84a64 64 0 0 0 36.48-35.2l37.12-91.52a120.32 120.32 0 0 1 67.84-64 128 128 0 0 1 96.64 0l92.8 39.04a64 64 0 0 0 51.2 0l92.8-39.04a128 128 0 0 1 96.64 0 120.32 120.32 0 0 1 67.84 64l37.12 91.52a64 64 0 0 0 36.48 35.2l94.08 35.84a120.96 120.96 0 0 1 68.48 64 115.2 115.2 0 0 1 0 93.44z m-54.4-23.04l40.32-89.6a60.16 60.16 0 0 0 0-48.64 64 64 0 0 0-35.84-33.92L864.29888 128a122.24 122.24 0 0 1-69.76-67.2l-37.12-91.52a64 64 0 0 0-35.2-34.56 64 64 0 0 0-49.92 1.28l-92.8 39.04a128 128 0 0 1-98.56 0L386.21888-64a64 64 0 0 0-50.56 0 64 64 0 0 0-35.2 34.56l-37.12 91.52A122.24 122.24 0 0 1 194.21888 128l-94.08 35.84a64 64 0 0 0-35.84 33.92 60.16 60.16 0 0 0 0 48.64l40.32 90.24a116.48 116.48 0 0 1 0 95.36l-39.68 89.6a60.16 60.16 0 0 0 0 48.64 64 64 0 0 0 35.84 33.92L194.21888 640a121.6 121.6 0 0 1 69.76 67.84l37.12 91.52A64 64 0 0 0 336.29888 832a64 64 0 0 0 49.92 0l94.08-37.76a128 128 0 0 1 98.56 0L672.29888 832a64 64 0 0 0 50.56 0 64 64 0 0 0 35.2-34.56l37.12-91.52A121.6 121.6 0 0 1 864.29888 640l94.08-35.84a64 64 0 0 0 35.84-33.92 60.16 60.16 0 0 0 0-48.64l-40.32-90.24a116.48 116.48 0 0 1-2.56-95.36z"  horiz-adv-x="1058" />

    
    <glyph glyph-name="zhifu" unicode="&#59641;" d="M173.077333 533.333333l91.114667 214.677334a65.6 65.6 0 0 0 86.016 34.773333c11.584-4.906667 24.96-10.282667 40.896-16.448 8.277333-3.2 16.789333-6.464 27.904-10.666667 28.202667-10.709333 39.296-14.933333 46.144-17.642666l51.477333 51.669333c28.181333 28.16 74.112 27.946667 102.570667-0.533333l195.925333-195.925334c16.426667-16.426667 23.445333-38.634667 21.056-59.904H896a42.666667 42.666667 0 0 0 42.666667-42.666666v-490.666667a42.666667 42.666667 0 0 0-42.666667-42.666667H128a42.666667 42.666667 0 0 0-42.666667 42.666667V490.666667a42.666667 42.666667 0 0 0 42.666667 42.666666h45.077333z m48.96 0h39.104l169.194667 169.770667-27.328 10.389333c-11.2 4.245333-19.818667 7.530667-28.224 10.794667a1459.2 1459.2 0 0 0-42.197333 17.002667 20.522667 20.522667 0 0 1-26.901334-10.88L222.037333 533.333333z m108.842667 0h454.954667a23.509333 23.509333 0 0 1-5.290667 25.322667l-195.925333 195.925333a23.36 23.36 0 0 1-33.024 0.213334L330.88 533.333333zM128 490.666667v-490.666667h768V490.666667H128z m597.333333-320a85.333333 85.333333 0 1 0 0 170.666666 85.333333 85.333333 0 0 0 0-170.666666z m0 42.666666a42.666667 42.666667 0 1 1 0 85.333334 42.666667 42.666667 0 0 1 0-85.333334z"  horiz-adv-x="1024" />

    
    <glyph glyph-name="bianji" unicode="&#60257;" d="M880.288 663.52L560.192 850.88a95.648 95.648 0 0 1-96.64 0L143.68 663.52A96.64 96.64 0 0 1 96 580.096v-397.664c0-34.784 18.624-66.88 48.736-84l320-181.92a95.52 95.52 0 0 1 94.496 0l320 181.92A96.576 96.576 0 0 1 928 182.432V580.096a96.64 96.64 0 0 1-47.712 83.424zM864 182.432c0-11.584-6.208-22.304-16.256-28l-320-181.92a31.776 31.776 0 0 0-31.488 0l-320 181.92A32.192 32.192 0 0 0 160 182.432V580.096c0 11.456 6.048 22.048 15.904 27.808l319.872 187.36a31.84 31.84 0 0 0 32.192 0l320.128-187.392c9.856-5.728 15.904-16.32 15.904-27.776v-397.664zM512 576a192 192 0 1 1 0-384 192 192 0 0 1 0 384z m0-320a128 128 0 1 0 0 256 128 128 0 0 0 0-256z"  horiz-adv-x="1024" />

    
    <glyph glyph-name="guanlianshebei" unicode="&#60259;" d="M260.096 352H160a32 32 0 0 0-32 32V640h480v-256a32 32 0 0 0-32-32h-54.976a32 32 0 0 1 0-64H576a96 96 0 0 1 96 96V736a96 96 0 0 1-96 96H160a96 96 0 0 1-96-96v-352a96 96 0 0 1 96-96h100.096a32 32 0 0 1 0 64zM128 736a32 32 0 0 0 32 32h416a32 32 0 0 0 32-32v-32H128V736zM864 480h-90.88a32 32 0 0 1 0-64H864a32 32 0 0 0 32-32v-256H416v256a32 32 0 0 0 32 32h63.072a32 32 0 0 1 0 64H448a96 96 0 0 1-96-96v-352a96 96 0 0 1 96-96h416a96 96 0 0 1 96 96V384a96 96 0 0 1-96 96z m32-448a32 32 0 0 0-32-32H448a32 32 0 0 0-32 32v32h480v-32z"  horiz-adv-x="1024" />

    
    <glyph glyph-name="guanfangbanben" unicode="&#60260;" d="M782.208 365.28L724.288 448l57.92 82.72a32 32 0 0 1-20.672 49.856l-99.456 17.536-17.536 99.456a32 32 0 0 1-49.856 20.672L512 660.288l-82.72 57.92a32 32 0 0 1-49.856-20.672l-17.536-99.456-99.456-17.504a32 32 0 0 1-20.672-49.856L299.712 448l-57.92-82.72a32 32 0 0 1 20.672-49.856l99.456-17.536 17.536-99.456a32 32 0 0 1 49.856-20.672L512 235.712l82.72-57.92a32 32 0 0 1 49.856 20.672l17.536 99.456 99.456 17.536a31.968 31.968 0 0 1 20.64 49.824z m-123.2 64.352l41.952-59.904-72.032-12.704a32 32 0 0 1-25.952-25.952l-12.704-72.032-59.904 41.952a32 32 0 0 1-36.704 0l-59.904-41.952-12.704 72.032a32 32 0 0 1-25.952 25.952l-72.032 12.704 41.952 59.904a32 32 0 0 1 0 36.704l-41.952 59.904 72.032 12.704a32 32 0 0 1 25.952 25.952l12.704 72.032 59.904-41.952a32 32 0 0 1 36.704 0l59.904 41.952 12.704-72.032a32 32 0 0 1 25.952-25.952l72.032-12.704-41.952-59.904a32 32 0 0 1 0-36.704zM512 861.088c-243.008 0-440-196.992-440-440a438.72 438.72 0 0 1 133.344-315.552 32 32 0 1 1 44.608 45.888 374.752 374.752 0 0 0-113.952 269.664c0 207.648 168.352 376 376 376s376-168.352 376-376c0-99.136-38.496-192.096-106.144-261.824a32 32 0 1 1 45.92-44.576 438.56 438.56 0 0 1 124.224 306.4c0 243.008-196.992 440-440 440zM704 134.912a32 32 0 0 1-32-32v-107.104l-142.24 94.848-0.064 0.032a32 32 0 0 1-11.552 4.736c-2.048 0.416-4.096 0.032-6.144 0.032s-4.096 0.352-6.144-0.032c-4.096-0.8-8-2.4-11.552-4.736l-0.064-0.032L352-4.224V96a32 32 0 0 1-64 0v-160c0-0.992 0.48-1.856 0.576-2.848a32.256 32.256 0 0 1 3.712-12.224c0.48-0.864 0.544-1.856 1.088-2.688 0.576-0.896 1.504-1.344 2.176-2.144a31.36 31.36 0 0 1 21.472-11.488c1.024-0.096 1.92-0.608 2.976-0.608 0.992 0 1.856 0.48 2.848 0.576a32.256 32.256 0 0 1 12.256 3.712c0.864 0.48 1.856 0.544 2.688 1.088L512 25.536l174.24-116.16c14.688-9.792 34.56-5.824 44.384 8.864a31.584 31.584 0 0 1 4.768 21.664c0.096 1.056 0.608 1.952 0.608 3.04v159.968a32 32 0 0 1-32 32z"  horiz-adv-x="1024" />

    
    <glyph glyph-name="gongnengdingyi" unicode="&#60258;" d="M418.496 250.656l-159.456 90.752a32 32 0 0 1-31.68-55.616l159.456-90.752a32 32 0 0 1 31.68 55.616zM790.208 516.192a32 32 0 0 1-31.616 55.648L508.8 429.664l-249.76 142.144a32 32 0 0 1-31.68-55.616l253.344-144.16V64a32 32 0 1 1 64 0v309.312c0 0.992-0.48 1.856-0.576 2.848l246.08 140.032zM880.288 663.52L560.192 850.88a95.648 95.648 0 0 1-96.64 0L143.68 663.52A96.64 96.64 0 0 1 96 580.096v-397.664c0-34.784 18.624-66.88 48.736-84l320-181.92a95.52 95.52 0 0 1 94.496 0l320 181.92A96.576 96.576 0 0 1 928 182.432V580.096a96.64 96.64 0 0 1-47.712 83.424zM864 182.432c0-11.584-6.208-22.304-16.256-28l-320-181.92a31.776 31.776 0 0 0-31.488 0l-320 181.92A32.192 32.192 0 0 0 160 182.432V580.096c0 11.456 6.048 22.048 15.904 27.808l319.872 187.36a31.84 31.84 0 0 0 32.192 0l320.128-187.392c9.856-5.728 15.904-16.32 15.904-27.776v-397.664zM778.656 442.048l-149.344-88.128c-20.608-12.16-37.344-38.944-37.344-59.808v-176.416c0-20.864 16.704-27.904 37.344-15.744l149.344 88.128c20.608 12.16 37.344 38.944 37.344 59.808v176.416c0 20.864-16.704 27.904-37.344 15.744z"  horiz-adv-x="1024" />

    
    <glyph glyph-name="xuanzeriqi" unicode="&#58976;" d="M859.946667 730.026667h-73.173334v32a27.093333 27.093333 0 1 1-53.973333 0v-32H297.386667v32a27.093333 27.093333 0 1 1-53.973334 0v-32H164.053333A57.6 57.6 0 0 1 106.666667 672.213333v-635.733333A57.6 57.6 0 0 1 164.053333-21.333333h695.893334A57.6 57.6 0 0 1 917.333333 36.48v635.733333a57.6 57.6 0 0 1-57.386666 57.813334zM164.053333 676.266667h80.213334v-12.586667a26.88 26.88 0 1 1 53.76 0v12.586667h435.413333v-12.586667a27.093333 27.093333 0 1 1 53.973333 0v12.586667h73.173334a4.48 4.48 0 0 0 4.266666-4.053334v-115.2h-704v115.84a3.626667 3.626667 0 0 0 3.2 3.413334z m695.893334-643.2H164.053333a4.693333 4.693333 0 0 0-4.266666 4.266666V503.253333h704v-465.92a3.2 3.2 0 0 0-3.84-4.266666zM250.24 394.026667l523.733333 0 0-53.76-523.733333 0 0 53.76ZM249.813333 252.8l279.466667 0 0-53.76-279.466667 0 0 53.76Z"  horiz-adv-x="1024" />

    
    <glyph glyph-name="xingmingyonghumingnicheng" unicode="&#58908;" d="M652.3 333.3C741.6 382.7 802 477.8 802 587c0 160.2-129.8 290-290 290S222 747.2 222 587c0-109.2 60.4-204.3 149.7-253.7C184 273.8 48 98.3 48-109h58c0 224.2 181.8 406 406 406s406-181.8 406-406h58c0 207.3-136 382.8-323.7 442.3zM280 587c0 128.1 103.9 232 232 232s232-103.9 232-232-103.9-232-232-232-232 103.9-232 232z"  horiz-adv-x="1024" />

    
    <glyph glyph-name="shangpin" unicode="&#58950;" d="M911.36 599.04c0 27.306667-23.893333 47.786667-47.786667 47.786667h-122.88C730.453333 766.293333 631.466667 861.866667 512 861.866667S290.133333 766.293333 283.306667 646.826667H150.186667c-23.893333 0-44.373333-20.48-44.373334-47.786667L58.026667-42.666667v-3.413333c0-27.306667 20.48-47.786667 47.786666-47.786667h808.96c27.306667 0 47.786667 20.48 47.786667 47.786667L911.36 599.04zM512 807.253333c88.746667 0 163.84-71.68 174.08-160.426666H337.92c6.826667 88.746667 81.92 160.426667 174.08 160.426666zM112.64-39.253333L160.426667 592.213333h119.466666v-88.746666c-13.653333-10.24-27.306667-27.306667-27.306666-47.786667 0-30.72 23.893333-54.613333 54.613333-54.613333 30.72 0 54.613333 23.893333 54.613333 54.613333 0 20.48-10.24 37.546667-27.306666 47.786667V592.213333h351.573333v-85.333333c-17.066667-10.24-27.306667-27.306667-27.306667-47.786667 0-30.72 23.893333-54.613333 54.613334-54.613333 30.72 0 54.613333 23.893333 54.613333 54.613333 0 20.48-10.24 37.546667-27.306667 47.786667V592.213333h116.053334l54.613333-631.466666H112.64z"  horiz-adv-x="1024" />

    
    <glyph glyph-name="xiala" unicode="&#58986;" d="M543.744 248.32c-7.168-7.168-16.896-13.824-26.112-11.776-9.216-1.536-17.92 5.632-25.088 11.776L270.848 471.04c-11.264 11.264-11.264 29.696 0 40.96s29.696 11.264 40.96 0l206.336-211.968L724.992 512c11.264 11.264 29.696 11.264 40.96 0s11.264-29.696 0-40.96L543.744 248.32z"  horiz-adv-x="1024" />

    
    <glyph glyph-name="zhifu1" unicode="&#58915;" d="M993.65888 536.389818c0.558545 7.13697 0.558545 14.30497 0 21.44194a79.437576 79.437576 0 0 1-22.807273 55.978666L720.033668 870.989576A84.340364 84.340364 0 0 1 660.052092 896c-22.590061 0-44.218182-8.998788-60.012606-25.010424L450.039001 719.747879 282.040941 762.631758a76.117333 76.117333 0 0 1-60.012606-8.347152A73.883152 73.883152 0 0 1 184.823001 705.473939l-44.404363-169.084121H102.003122c-55.389091 0-100.693333-43.845818-101.996606-98.800485V-25.6c-0.310303-27.058424 10.302061-53.092848 29.478788-72.331636A102.4 102.4 0 0 1 101.972092-128h882.067394a102.4 102.4 0 0 1 72.548849 30.068364c19.145697 19.238788 29.789091 45.304242 29.447757 72.331636V437.589333a100.352 100.352 0 0 1-92.408242 98.800485z m-352.814545 295.315394a27.772121 27.772121 0 0 0 34.784969 0l258.01697-257.210182c4.530424-4.375273 7.13697-10.395152 7.19903-16.663272a21.348848 21.348848 0 0 0-7.19903-21.41091H346.832213l294.012122 295.284364zM240.02591 691.2a25.227636 25.227636 0 0 0 30.006303 17.842424l119.994182-32.147394-137.991757-140.505212H199.221062L240.02591 691.2z m776.440243-714.410667a30.782061 30.782061 0 0 0-7.633455-25.506909 31.340606 31.340606 0 0 0-24.762182-10.24H102.003122a30.099394 30.099394 0 0 0-22.59006 9.929697 29.602909 29.602909 0 0 0-7.385212 23.427879V437.589333c0 16.446061 13.436121 29.758061 29.975272 29.758061h882.067394c16.756364 0 30.533818-13.156848 31.185455-29.789091l1.210182-460.8zM662.131122 399.515152l-57.871515-107.271758a481.807515 481.807515 0 0 1-27.67903-55.482182c-10.053818 22.186667-39.005091 75.217455-86.791758 160.302546H434.430759l101.903515-167.687758h-83.037091v-36.988121h96.876606v-51.820606h-96.876606v-38.198303h96.876606V27.151515h47.786667v75.217455h94.332121v38.229333h-94.332121v51.789576h94.332121v36.988121h-80.492606L713.703486 399.515152h-51.572364z"  horiz-adv-x="1086" />

    
    <glyph glyph-name="dd" unicode="&#58880;" d="M268.02606186-59.64232617000005a117.44211993 117.44211993 0 0 0-117.28124029 117.2812403L150.74482157 667.69441921A117.44211993 117.44211993 0 0 0 268.02606186 784.97565951l488.02831609 0a117.44211993 117.44211993 0 0 0 117.2812403-117.2812403l0-609.97506528a117.44211993 117.44211993 0 0 0-117.2812403-117.28124029z m0 792.97562884a65.79976308 65.79976308 0 0 1-65.71932328-65.71932326l0-609.97506528a65.79976308 65.79976308 0 0 1 65.71932328-65.71932326l488.02831609 0a65.79976308 65.79976308 0 0 1 65.71932328 65.71932326L821.77370123 667.69441921a65.79976308 65.79976308 0 0 1-65.71932328 65.71932326zM318.94446042 336.84548826a25.82117841 25.82117841 0 1 0 0 51.56191701l386.11107916 0a25.82117841 25.82117841 0 1 0 0-51.56191701zM318.94446042 214.89873909000005a25.82117841 25.82117841 0 1 0 0 51.24015778l263.44037172 0a25.82117841 25.82117841 0 1 0 0-51.64235683zM318.94446042 459.19443646a25.82117841 25.82117841 0 1 0 0 51.64235684l386.11107916 0a25.82117841 25.82117841 0 1 0 0-51.64235684z"  horiz-adv-x="1024" />

    
    <glyph glyph-name="kehu" unicode="&#58974;" d="M187.392-18.944c-14.848 0-26.624 11.776-26.624 26.624v71.68c0 142.848 86.528 269.824 221.184 323.072l15.36 6.144-12.8 10.24C334.336 458.24 305.152 517.12 305.152 580.096c0 113.152 92.672 205.312 206.336 205.312s206.336-92.16 206.336-205.312c0-62.976-28.672-121.856-79.36-161.28l-12.8-10.24 15.36-6.144c134.144-53.248 221.184-180.224 221.184-323.072v-71.68c0-14.336-11.776-26.624-26.624-26.624H187.392z m324.096 393.728c-163.84 0-297.472-132.608-297.472-295.424v-45.056H808.96v45.056c-0.512 162.816-133.632 295.424-297.472 295.424z m0 357.376c-84.48 0-153.6-68.608-153.6-152.576s68.608-152.576 153.6-152.576c84.48 0 153.6 68.608 153.6 152.576S595.968 732.16 511.488 732.16zM43.52 88.576c-14.848 0-26.624 11.776-26.624 26.624v55.296c0 103.936 57.344 198.144 150.016 245.248l10.752 5.632L168.96 430.08c-28.672 31.232-44.544 71.68-44.544 113.664 0 89.6 72.192 164.864 162.304 169.472-14.336-18.944-24.576-38.912-32.256-60.928-45.568-15.872-76.8-59.904-76.8-108.544 0-45.568 27.136-87.04 69.12-105.984 11.776-4.608 18.944-13.824 18.944-24.576 0-10.752-7.68-20.992-19.456-24.576l-6.144-1.536c-100.352-25.088-169.984-114.176-169.984-217.088v-28.672h33.792c-3.072-17.408-4.608-35.328-5.12-52.736H43.52z m880.128 0c-0.512 17.408-2.048 35.328-5.12 52.736h33.792v28.672c0 102.4-70.144 192-169.984 217.088l-7.168 1.536c-10.752 3.584-18.432 13.824-18.432 24.576 0 10.752 7.168 19.968 18.432 24.576 42.496 18.944 69.632 60.928 69.632 106.496 0 48.64-31.232 92.672-77.824 109.568-6.656 20.992-17.408 41.472-31.232 59.904 89.6-4.096 162.304-79.36 162.304-169.472 0-41.984-15.872-82.432-44.544-113.664l-8.192-9.216 10.752-5.632c92.16-47.616 149.504-141.312 149.504-245.248v-55.296c0-14.336-11.776-26.624-26.624-26.624h-55.296z"  horiz-adv-x="1024" />

    
    <glyph glyph-name="neirongguanli" unicode="&#58883;" d="M512 349.867c-3.413 0-10.24 0-13.653 3.413L54.613 558.08c-13.653 6.827-20.48 17.067-20.48 30.72s6.827 23.893 20.48 30.72l443.734 204.8c10.24 3.413 20.48 3.413 27.306 0l443.734-204.8c13.653-6.827 20.48-17.067 20.48-30.72s-6.827-23.893-20.48-30.72l-443.734-204.8c-3.413-3.413-10.24-3.413-13.653-3.413zM150.187 588.8L512 421.547 873.813 588.8 512 756.053 150.187 588.8zM512 145.067c-3.413 0-10.24 0-13.653 3.413L54.613 353.28c-17.066 6.827-23.893 27.307-17.066 44.373 6.826 17.067 27.306 23.894 44.373 17.067L512 216.747 942.08 414.72c17.067 6.827 37.547 0 44.373-17.067 6.827-17.066 0-37.546-17.066-44.373l-443.734-204.8c-3.413-3.413-10.24-3.413-13.653-3.413zM512-59.733c-3.413 0-10.24 0-13.653 3.413L54.613 148.48c-17.066 6.827-23.893 27.307-17.066 44.373 6.826 17.067 27.306 23.894 44.373 17.067L512 11.947 942.08 209.92c17.067 6.827 37.547 0 44.373-17.067 6.827-17.066 0-37.546-17.066-44.373l-443.734-204.8c-3.413-3.413-10.24-3.413-13.653-3.413z"  horiz-adv-x="1024" />

    
    <glyph glyph-name="xuanzhong" unicode="&#58975;" d="M511.68 896a511.68 511.68 0 1 1 0-1023.36 511.68 511.68 0 0 1 0 1023.36zM512-64A448 448 0 1 0 512 832a448 448 0 0 0 0-896z"  horiz-adv-x="1024" />

    
    <glyph glyph-name="xuanzhong1" unicode="&#59087;" d="M0.21 398.608A511.891 511.891 0 1 1 526.816 895.782 511.891 511.891 0 0 1 0.21 398.608z m809.427 109.417L469.23 188.093a46.07 46.07 0 0 0-63.987 0L218.403 383.89a46.07 46.07 0 1 0 67.186 63.987l153.567-162.526L745.651 575.85a46.07 46.07 0 1 0 63.986-67.185"  horiz-adv-x="1024" />

    
    <glyph glyph-name="xuanze" unicode="&#58888;" d="M1024-3.683781999999951c0-68.666429-55.722917-124.389345-124.243091-124.389345H124.389345A124.462472 124.462472 0 0 0 0-3.683781999999951V771.610655C0 840.277083 55.722917 896 124.389345 896h775.367564a124.316218 124.316218 0 0 0 124.243091-124.389345v-775.294437zM443.223881 269.51938900000005L264.208527 448.315361a42.560023 42.560023 0 0 1-41.901878 12.285367 42.63315 42.63315 0 0 1-30.859673-30.859673 42.560023 42.560023 0 0 1 12.285367-41.901878l201.026637-201.099764a42.413768 42.413768 0 0 1 16.526744-10.310933 42.706277 42.706277 0 0 1 54.845391 4.826394l346.25723 346.257231a42.852532 42.852532 0 0 1-60.476183 60.622438L443.223881 269.51938900000005z"  horiz-adv-x="1024" />

    
    <glyph glyph-name="ketang" unicode="&#59205;" d="M177.98 529.732c0 13.285 9.753 26.57 24.382 26.57h153.6c12.19 0 24.38-13.285 24.38-26.57 0-15.942-12.19-26.57-24.38-26.57h-153.6c-12.19 0-24.381 13.285-24.381 26.57z m204.801-132.85c0-15.942-9.752-26.57-24.38-26.57H202.361c-12.19 0-24.38 10.628-24.38 26.57 0 13.285 12.19 26.57 24.38 26.57h153.6c17.067 0 26.82-13.285 26.82-26.57z m265.752 132.85c0 15.942 12.191 26.57 24.381 26.57h153.6c12.191 0 24.382-10.628 24.382-26.57s-12.191-26.57-24.381-26.57h-153.6c-14.63 0-24.382 13.285-24.382 26.57z m204.8-135.506c0-13.285-12.19-26.57-24.38-26.57h-153.6c-14.629 0-24.381 13.285-24.381 26.57 0 15.942 9.752 26.57 24.38 26.57h153.6c14.63 0 24.382-10.628 24.382-26.57zM926.478 822H677.79C609.524 822 548.57 784.802 512 721.034 477.866 784.802 414.476 822 348.647 822H97.524C43.886 822 0 774.174 0 715.721v-600.478c0-58.453 43.886-106.279 97.524-106.279h302.323c43.886-66.424 126.781-85.023 190.172-37.197 12.19 10.628 24.381 23.913 34.134 37.197h302.323c53.638 0 97.524 47.826 97.524 106.28V715.72C1024 774.175 980.114 822 926.476 822z m39.01-706.757c0-23.913-17.068-42.512-39.01-42.512H587.58c-9.752-45.169-53.638-71.739-95.086-61.11-26.819 7.97-48.762 31.883-56.076 61.11H97.524c-21.943 0-39.01 18.599-39.01 42.512V715.72c0 23.913 17.067 42.512 39.01 42.512h251.124c75.58 0 136.533-66.425 136.533-148.791v-348.065c2.439-15.942 14.629-29.227 29.258-29.227h2.438c14.628 0 26.819 13.285 26.819 29.227V609.44c0 82.366 60.952 148.79 136.534 148.79h246.248c21.943 0 39.01-18.598 39.01-42.51v-600.478h-0.002zM177.982 529.732c0 13.285 9.753 26.57 24.381 26.57h153.6c12.191 0 24.382-13.285 24.382-26.57 0-15.942-12.191-26.57-24.381-26.57h-153.6c-12.191 0-24.382 13.285-24.382 26.57z m204.8-132.85c0-15.942-9.752-26.57-24.38-26.57H202.365c-12.19 0-24.381 10.628-24.381 26.57 0 13.285 12.19 26.57 24.38 26.57h153.6c17.068 0 26.82-13.285 26.82-26.57z m265.753 132.85c0 15.942 12.19 26.57 24.381 26.57h153.6c12.19 0 24.381-10.628 24.381-26.57s-12.19-26.57-24.38-26.57H672.916c-14.629 0-24.38 13.285-24.38 26.57z m204.8-135.506c0-13.285-12.19-26.57-24.38-26.57h-153.6c-14.63 0-24.382 13.285-24.382 26.57 0 15.942 9.753 26.57 24.381 26.57h153.6c14.629 0 24.381-10.628 24.381-26.57zM382.784 529.732c0-15.942-12.19-26.57-24.381-26.57H202.365c-14.629 0-24.381 10.628-24.381 26.57 0 13.285 9.752 26.57 24.38 26.57h153.6c14.63 0 26.82-10.628 26.82-26.57z m0-132.85c0-15.942-9.753-26.57-24.381-26.57H202.365c-12.19 0-24.381 10.628-24.381 26.57 0 13.285 12.19 26.57 24.38 26.57h153.6c17.068 0 26.82-13.285 26.82-26.57z m468.114 132.85c0-15.942-12.19-26.57-24.38-26.57h-153.6c-12.191 0-24.382 10.628-24.382 26.57s12.19 26.57 24.381 26.57h153.6c14.63 0 24.381-10.628 24.381-26.57z m2.439-135.506c0-13.285-12.191-26.57-24.381-26.57h-153.6c-14.63 0-24.382 13.285-24.382 26.57 0 15.942 9.753 26.57 24.381 26.57h153.6c14.63 0 24.382-10.628 24.382-26.57z"  horiz-adv-x="1024" />

    
    <glyph glyph-name="caigou" unicode="&#58884;" d="M397.312 110.59199999999998c-11.264 0-22.016 7.68-24.576 19.456L244.224 635.904c-3.584 13.824 4.608 27.648 18.432 31.232l506.368 128.512c6.656 1.536 13.312 0.512 19.456-3.072 5.632-3.584 10.24-9.216 11.776-15.872l128.512-506.368c1.536-6.656 0.512-13.312-3.072-19.456-3.584-5.632-9.216-10.24-15.872-11.776L403.456 110.59199999999998h-6.144z m-97.28 513.024l115.712-456.704 456.704 115.712-115.712 456.704-456.704-115.712zM475.136 262.144c-11.264 0-22.016 7.68-24.576 19.456-3.584 13.824 4.608 27.648 18.432 31.232l297.472 75.776c13.824 3.584 27.648-4.608 31.232-18.432 3.584-13.824-4.608-27.648-18.432-31.232L481.28 263.168c-2.048-1.024-4.096-1.024-6.144-1.024z m105.984 143.36c-11.264 0-22.016 7.68-24.576 19.456-3.584 13.824 4.608 27.648 18.432 31.232l163.84 41.472c13.824 3.584 27.648-4.608 31.232-18.432S765.44 451.584 751.616 448l-163.84-41.472c-2.56-1.024-4.608-1.024-6.656-1.024z m-262.144-524.8c-57.344 0-103.936 46.592-103.936 103.936s46.592 103.936 103.936 103.936c57.344 0 103.936-46.592 103.936-103.936s-46.592-103.936-103.936-103.936z m0 156.672c-29.184 0-52.736-23.552-52.736-52.736s23.552-52.736 52.736-52.736c29.184 0 52.736 23.552 52.736 52.736s-23.552 52.736-52.736 52.736zM378.368 9.216000000000008c-11.264 0-22.016 7.68-24.576 19.456-3.584 13.824 4.608 27.648 18.432 31.232l535.552 136.192c13.824 3.584 27.648-4.608 31.232-18.432s-4.608-27.648-18.432-31.232L384.512 10.240000000000009c-2.048-1.024-4.096-1.024-6.144-1.024z m-59.392 28.16c-11.264 0-21.504 7.68-24.576 18.944L156.672 567.808l-100.864 58.88c-12.288 7.168-16.384 22.528-9.216 34.816s22.528 16.384 34.816 9.216l110.08-64c5.632-3.584 10.24-9.216 11.776-15.36l140.288-521.728c3.584-13.824-4.608-27.648-17.92-31.232-2.048-0.512-4.608-1.024-6.656-1.024z"  horiz-adv-x="1024" />

    


  </font>
</defs>
</svg>
